<?xml version="1.0" encoding="UTF-8" standalone="no"?>
<!DOCTYPE svg PUBLIC "-//W3C//DTD SVG 1.1//EN"
 "http://www.w3.org/Graphics/SVG/1.1/DTD/svg11.dtd">
<!-- Generated by graphviz version 2.34.0 (20130907.0228)
 -->
<!-- Title: %3 Pages: 1 -->
<svg width="774pt" height="268pt"
 viewBox="0.00 0.00 774.00 268.00" xmlns="http://www.w3.org/2000/svg" xmlns:xlink="http://www.w3.org/1999/xlink">
<g id="graph0" class="graph" transform="scale(1 1) rotate(0) translate(4 264)">
<title>%3</title>
<polygon fill="white" stroke="white" points="-4,4 -4,-264 770,-264 770,4 -4,4"/>
<!-- org_liveSense_jdbc_jaybird -->
<g id="node1" class="node"><title>org_liveSense_jdbc_jaybird</title>
<polygon fill="yellow" stroke="black" points="313,-223 313,-259 477,-259 477,-223 313,-223"/>
<text text-anchor="middle" x="395" y="-248.1" font-family="Arial" font-size="8.00">liveSense :: JDBC :: Jaybird</text>
<polyline fill="none" stroke="black" points="313,-241 477,-241 "/>
<text text-anchor="middle" x="395" y="-230.1" font-family="Arial" font-size="8.00">org.liveSense.jdbc.jaybird(2&#45;SNAPSHOT)</text>
</g>
<!-- org_apache_geronimo_specs_geronimo_j2ee_connector_1_5_spec -->
<g id="node2" class="node"><title>org_apache_geronimo_specs_geronimo_j2ee_connector_1_5_spec</title>
<polygon fill="green" stroke="black" points="0,-149 0,-185 266,-185 266,-149 0,-149"/>
<text text-anchor="middle" x="133" y="-174.1" font-family="Arial" font-size="8.00">geronimo&#45;j2ee&#45;connector_1.5_spec</text>
<polyline fill="none" stroke="black" points="0,-167 266,-167 "/>
<text text-anchor="middle" x="133" y="-156.1" font-family="Arial" font-size="8.00">org.apache.geronimo.specs.geronimo&#45;j2ee&#45;connector_1.5_spec(2.0.0)</text>
</g>
<!-- org_liveSense_jdbc_jaybird&#45;&gt;org_apache_geronimo_specs_geronimo_j2ee_connector_1_5_spec -->
<g id="edge1" class="edge"><title>org_liveSense_jdbc_jaybird&#45;&gt;org_apache_geronimo_specs_geronimo_j2ee_connector_1_5_spec</title>
<path fill="none" stroke="yellow" d="M332.91,-222.937C294.466,-212.372 244.953,-198.766 204.822,-187.737"/>
<polygon fill="yellow" stroke="yellow" points="205.668,-184.34 195.098,-185.065 203.813,-191.09 205.668,-184.34"/>
</g>
<!-- org_apache_geronimo_specs_geronimo_jta_1_1_spec -->
<g id="node3" class="node"><title>org_apache_geronimo_specs_geronimo_jta_1_1_spec</title>
<polygon fill="green" stroke="black" points="284,-149 284,-185 506,-185 506,-149 284,-149"/>
<text text-anchor="middle" x="395" y="-174.1" font-family="Arial" font-size="8.00">geronimo&#45;jta_1.1_spec</text>
<polyline fill="none" stroke="black" points="284,-167 506,-167 "/>
<text text-anchor="middle" x="395" y="-156.1" font-family="Arial" font-size="8.00">org.apache.geronimo.specs.geronimo&#45;jta_1.1_spec(1.1.1)</text>
</g>
<!-- org_liveSense_jdbc_jaybird&#45;&gt;org_apache_geronimo_specs_geronimo_jta_1_1_spec -->
<g id="edge2" class="edge"><title>org_liveSense_jdbc_jaybird&#45;&gt;org_apache_geronimo_specs_geronimo_jta_1_1_spec</title>
<path fill="none" stroke="yellow" d="M395,-222.937C395,-214.807 395,-204.876 395,-195.705"/>
<polygon fill="yellow" stroke="yellow" points="398.5,-195.441 395,-185.441 391.5,-195.441 398.5,-195.441"/>
</g>
<!-- org_ops4j_pax_logging_pax_logging_api -->
<g id="node4" class="node"><title>org_ops4j_pax_logging_pax_logging_api</title>
<polygon fill="green" stroke="black" points="524.5,-149 524.5,-185 697.5,-185 697.5,-149 524.5,-149"/>
<text text-anchor="middle" x="611" y="-174.1" font-family="Arial" font-size="8.00">OPS4J Pax Logging &#45; API</text>
<polyline fill="none" stroke="black" points="524.5,-167 697.5,-167 "/>
<text text-anchor="middle" x="611" y="-156.1" font-family="Arial" font-size="8.00">org.ops4j.pax.logging.pax&#45;logging&#45;api(1.7.0)</text>
</g>
<!-- org_liveSense_jdbc_jaybird&#45;&gt;org_ops4j_pax_logging_pax_logging_api -->
<g id="edge3" class="edge"><title>org_liveSense_jdbc_jaybird&#45;&gt;org_ops4j_pax_logging_pax_logging_api</title>
<path fill="none" stroke="yellow" d="M446.189,-222.937C477.414,-212.529 517.496,-199.168 550.314,-188.229"/>
<polygon fill="yellow" stroke="yellow" points="551.425,-191.548 559.805,-185.065 549.211,-184.907 551.425,-191.548"/>
</g>
<!-- org_apache_geronimo_specs_geronimo_j2ee_connector_1_5_spec&#45;&gt;org_apache_geronimo_specs_geronimo_jta_1_1_spec -->
<g id="edge4" class="edge"><title>org_apache_geronimo_specs_geronimo_j2ee_connector_1_5_spec&#45;&gt;org_apache_geronimo_specs_geronimo_jta_1_1_spec</title>
<path fill="none" stroke="green" d="M266.047,-167C268.655,-167 271.263,-167 273.87,-167"/>
<polygon fill="green" stroke="green" points="273.929,-170.5 283.929,-167 273.929,-163.5 273.929,-170.5"/>
</g>
<!-- org_apache_felix_eventadmin -->
<g id="node5" class="node"><title>org_apache_felix_eventadmin</title>
<polygon fill="#3182bd" stroke="black" points="541,-75 541,-111 681,-111 681,-75 541,-75"/>
<text text-anchor="middle" x="611" y="-100.1" font-family="Arial" font-size="8.00">Apache Felix EventAdmin</text>
<polyline fill="none" stroke="black" points="541,-93 681,-93 "/>
<text text-anchor="middle" x="611" y="-82.1" font-family="Arial" font-size="8.00">org.apache.felix.eventadmin(1.3.2)</text>
</g>
<!-- org_ops4j_pax_logging_pax_logging_api&#45;&gt;org_apache_felix_eventadmin -->
<g id="edge5" class="edge"><title>org_ops4j_pax_logging_pax_logging_api&#45;&gt;org_apache_felix_eventadmin</title>
<path fill="none" stroke="green" d="M605.16,-148.937C604.297,-140.807 604.048,-130.876 604.412,-121.705"/>
<polygon fill="green" stroke="green" points="607.923,-121.658 605.121,-111.441 600.94,-121.176 607.923,-121.658"/>
</g>
<!-- org_apache_felix_eventadmin&#45;&gt;org_ops4j_pax_logging_pax_logging_api -->
<g id="edge6" class="edge"><title>org_apache_felix_eventadmin&#45;&gt;org_ops4j_pax_logging_pax_logging_api</title>
<path fill="none" stroke="#3182bd" d="M616.879,-111.441C617.723,-119.625 617.954,-129.572 617.571,-138.719"/>
<polygon fill="#3182bd" stroke="#3182bd" points="614.062,-138.713 616.84,-148.937 621.045,-139.212 614.062,-138.713"/>
</g>
<!-- org_apache_felix_configadmin -->
<g id="node6" class="node"><title>org_apache_felix_configadmin</title>
<polygon fill="#9ecae1" stroke="black" points="437,-1 437,-37 603,-37 603,-1 437,-1"/>
<text text-anchor="middle" x="520" y="-26.1" font-family="Arial" font-size="8.00">Apache Felix Configuration Admin Service</text>
<polyline fill="none" stroke="black" points="437,-19 603,-19 "/>
<text text-anchor="middle" x="520" y="-8.1" font-family="Arial" font-size="8.00">org.apache.felix.configadmin(1.6.0)</text>
</g>
<!-- org_apache_felix_eventadmin&#45;&gt;org_apache_felix_configadmin -->
<g id="edge7" class="edge"><title>org_apache_felix_eventadmin&#45;&gt;org_apache_felix_configadmin</title>
<path fill="none" stroke="#3182bd" d="M589.434,-74.937C577.621,-65.5902 562.798,-53.8625 549.885,-43.6456"/>
<polygon fill="#3182bd" stroke="#3182bd" points="551.74,-40.6501 541.726,-37.19 547.397,-46.1397 551.74,-40.6501"/>
</g>
<!-- org_apache_felix_metatype -->
<g id="node7" class="node"><title>org_apache_felix_metatype</title>
<polygon fill="#9ecae1" stroke="black" points="635.5,-1 635.5,-37 766.5,-37 766.5,-1 635.5,-1"/>
<text text-anchor="middle" x="701" y="-26.1" font-family="Arial" font-size="8.00">Apache Felix Metatype Service</text>
<polyline fill="none" stroke="black" points="635.5,-19 766.5,-19 "/>
<text text-anchor="middle" x="701" y="-8.1" font-family="Arial" font-size="8.00">org.apache.felix.metatype(1.0.6)</text>
</g>
<!-- org_apache_felix_eventadmin&#45;&gt;org_apache_felix_metatype -->
<g id="edge8" class="edge"><title>org_apache_felix_eventadmin&#45;&gt;org_apache_felix_metatype</title>
<path fill="none" stroke="#3182bd" d="M632.329,-74.937C644.012,-65.5902 658.672,-53.8625 671.443,-43.6456"/>
<polygon fill="#3182bd" stroke="#3182bd" points="673.89,-46.1701 679.512,-37.19 669.517,-40.704 673.89,-46.1701"/>
</g>
<!-- org_apache_felix_configadmin&#45;&gt;org_ops4j_pax_logging_pax_logging_api -->
<g id="edge9" class="edge"><title>org_apache_felix_configadmin&#45;&gt;org_ops4j_pax_logging_pax_logging_api</title>
<path fill="none" stroke="#9ecae1" d="M518.241,-37.3142C517.11,-56.9083 517.93,-89.0738 532,-112 539.837,-124.77 551.957,-135.244 564.37,-143.456"/>
<polygon fill="#9ecae1" stroke="#9ecae1" points="562.617,-146.487 572.961,-148.779 566.304,-140.537 562.617,-146.487"/>
</g>
<!-- org_apache_felix_metatype&#45;&gt;org_ops4j_pax_logging_pax_logging_api -->
<g id="edge10" class="edge"><title>org_apache_felix_metatype&#45;&gt;org_ops4j_pax_logging_pax_logging_api</title>
<path fill="none" stroke="#9ecae1" d="M702.986,-37.2982C704.366,-56.8776 703.929,-89.0296 690,-112 682.231,-124.812 670.131,-135.298 657.716,-143.508"/>
<polygon fill="#9ecae1" stroke="#9ecae1" points="655.781,-140.59 649.12,-148.829 659.465,-146.542 655.781,-140.59"/>
</g>
</g>
</svg>
